<svg width="21" height="21" viewBox="0 0 21 21" fill="none" xmlns="http://www.w3.org/2000/svg">
<g clip-path="url(#clip0_139_24)">
<path d="M6.28905 16.7765C5.40016 16.7765 4.51127 15.9987 4.06682 15.6654C1.8446 14.1098 1.17793 13.5543 0.73349 13.2209V17.8876C0.73349 18.5012 1.23106 18.9987 1.8446 18.9987H10.7335C11.347 18.9987 11.8446 18.5012 11.8446 17.8876V13.2209C11.4002 13.5543 10.7335 14.1098 8.51127 15.6654C8.06682 15.9987 7.17793 16.7765 6.28905 16.7765ZM10.7335 10.1098H1.8446C1.23106 10.1098 0.73349 10.6074 0.73349 11.2209V11.7765C1.62238 12.4432 1.51127 12.4432 4.73349 14.7765C5.06682 14.9987 5.73349 15.6654 6.28905 15.6654C6.8446 15.6654 7.51127 14.9987 7.8446 14.8876C11.0668 12.5543 10.9557 12.5543 11.8446 11.8876V11.2209C11.8446 10.6074 11.347 10.1098 10.7335 10.1098ZM19.6224 6.7765H8.51127C7.89773 6.7765 7.40016 7.27407 7.40016 7.88761V8.99873H10.7335C11.8866 8.99873 12.8373 9.88136 12.9456 11.0064L12.9557 10.9987V15.6654H19.6224C20.2359 15.6654 20.7335 15.1678 20.7335 14.5543V7.88761C20.7335 7.27407 20.2359 6.7765 19.6224 6.7765ZM18.5113 11.2209H16.289V8.99873H18.5113V11.2209ZM6.28905 7.88761C6.28905 6.66227 7.28592 5.66539 8.51127 5.66539H16.289V2.33206C16.289 1.71852 15.7915 1.22095 15.1779 1.22095H4.06682C3.45328 1.22095 2.95571 1.71852 2.95571 2.33206V8.99873H6.28905V7.88761Z" fill="white"/>
</g>
<defs>
<clipPath id="clip0_139_24">
<rect width="20" height="20" fill="white" transform="translate(0.73349 0.109863)"/>
</clipPath>
</defs>
</svg>
